<svg width="130" height="72" viewBox="0 0 130 72" fill="none" xmlns="http://www.w3.org/2000/svg">
<path d="M58.8562 25.3181C58.5039 25.5037 58.0448 25.7551 57.5085 26.0721C54.9378 27.5857 48.934 31.607 48.6842 36.2449C48.552 38.6875 50.0394 41.0833 53.1046 43.3666C53.6346 43.7845 54.2916 44.0085 54.9665 44.0014C55.6671 43.9653 56.6092 43.6688 56.6806 41.5186C56.9222 37.4183 58.1707 33.4408 60.3157 29.938C60.5301 29.124 60.7264 28.4876 60.8562 28.0941C59.9567 27.3611 59.2668 26.4035 58.8562 25.3181Z" fill="#E26D00"/>
<path d="M58.4595 23.6729C58.4392 23.4511 58.4292 23.2266 58.4292 22.9994C58.4297 22.067 58.6302 21.1455 59.0172 20.2973C58.6296 20.1765 58.1179 20.0262 57.5052 19.8685C57.4743 19.8611 57.4442 19.8515 57.4148 19.8397C53.8182 18.9272 47.3947 17.8743 44.1012 20.8344C42.2812 22.4688 41.6397 25.2169 42.1916 28.995C42.2699 29.6627 42.5752 30.2831 43.0564 30.7526C43.5772 31.2265 44.4527 31.6873 46.0238 30.2114C49.0959 27.4896 52.7881 25.5619 56.7773 24.5968C57.501 24.1722 58.0899 23.8601 58.4595 23.6729Z" fill="#E26D00"/>
<path d="M86.9428 15.246C86.4221 14.7713 85.5466 14.3122 83.9754 15.7873C80.9017 18.5158 77.2025 20.4443 73.2055 21.4019C72.4844 21.8249 71.8996 22.1361 71.5317 22.3242C71.6525 23.4782 71.462 24.6435 70.9797 25.699C71.3658 25.8189 71.8758 25.97 72.486 26.131C76.0654 27.05 82.5751 28.1489 85.8982 25.1635C87.7166 23.5299 88.3622 20.785 87.8078 17.0069C87.7301 16.338 87.4248 15.7163 86.9428 15.246Z" fill="#E26D00"/>
<path d="M83.5106 31.3186C79.4193 31.0682 75.4511 29.822 71.9513 27.6884C71.1299 27.4683 70.4852 27.2687 70.0909 27.1406C69.3594 28.0375 68.4044 28.7259 67.3222 29.1364C67.5086 29.4879 67.7584 29.9429 68.0721 30.4752C69.5841 33.0475 73.5979 39.0572 78.2351 39.3109C80.6827 39.4424 83.0726 37.9591 85.3584 34.8939C85.775 34.3638 85.999 33.7078 85.9932 33.0336C85.9622 32.3289 85.6715 31.3876 83.5106 31.3186Z" fill="#E26D00"/>
<path d="M66.5963 31.2051C66.175 30.4857 65.8645 29.9017 65.6764 29.5345C65.4516 29.5578 65.2257 29.5696 64.9996 29.5698C64.0685 29.5691 63.1483 29.3691 62.3008 28.9834C62.1858 29.3522 62.0429 29.8351 61.8902 30.4133C61.8902 30.4314 61.8828 30.4486 61.8787 30.4651C61.1321 33.352 59.7301 40.44 62.8323 43.8977C64.4659 45.7169 67.2108 46.3576 70.9929 45.8081C71.6624 45.7301 72.2847 45.4241 72.7554 44.9416C73.2302 44.4208 73.6892 43.5453 72.2134 41.975C69.4846 38.9011 67.5554 35.2021 66.5963 31.2051Z" fill="#E26D00"/>
<path d="M59.0081 0.190533C58.3386 0.268507 57.7163 0.574474 57.2455 1.05705C56.7708 1.5778 56.3117 2.45331 57.7876 4.02365C60.5112 7.11324 62.4409 10.8201 63.4095 14.8231C63.8201 15.5303 64.1274 16.1028 64.313 16.4658C65.4715 16.3431 66.6417 16.5343 67.7009 17.0193C67.8208 16.6308 67.9719 16.1159 68.1296 15.5024C69.0519 11.9239 70.1526 5.42476 67.1687 2.10251C65.536 0.283329 62.7911 -0.359777 59.0081 0.190533Z" fill="#E26D00"/>
<path d="M72.4736 19.9269C75.0469 18.4156 81.0539 14.4019 81.3078 9.76061C81.4416 7.31638 79.9534 4.91482 76.885 2.63237C76.3562 2.21358 75.6993 1.98936 75.0247 1.99753C74.3241 2.03364 73.382 2.32605 73.3106 4.48039C73.0647 8.56774 71.8211 12.5326 69.6886 16.0282C69.4725 16.8569 69.2722 17.5065 69.1416 17.9082C70.0376 18.6406 70.7248 19.596 71.1342 20.6785C71.4832 20.4936 71.9407 20.2431 72.4736 19.9269Z" fill="#E26D00"/>
<path d="M64.9996 27.9273C67.7213 27.9273 69.9276 25.7211 69.9276 22.9994C69.9276 20.2778 67.7213 18.0715 64.9996 18.0715C62.278 18.0715 60.0717 20.2778 60.0717 22.9994C60.0749 25.7197 62.2794 27.9241 64.9996 27.9273ZM64.9996 19.7141C65.4532 19.7141 65.821 20.0818 65.821 20.5354C65.821 20.9891 65.4533 21.3568 64.9996 21.3568C64.0924 21.3568 63.357 22.0922 63.357 22.9994C63.357 23.453 62.9893 23.8208 62.5357 23.8208C62.082 23.8208 61.7143 23.4531 61.7143 22.9994C61.7144 21.185 63.1853 19.7141 64.9996 19.7141Z" fill="#E26D00"/>
<path d="M46.4806 14.6802C50.5725 14.9303 54.5413 16.1768 58.0415 18.3113C58.8628 18.5265 59.5051 18.7219 59.9034 18.8551C60.6342 17.9604 61.5873 17.2736 62.6672 16.8634C62.4808 16.5127 62.2344 16.0635 61.9279 15.5395C60.4216 12.9638 56.4168 6.95012 51.7641 6.69059C49.3289 6.56411 46.9183 8.04005 44.6342 11.1052C44.2176 11.6353 43.9937 12.2913 43.9994 12.9655C44.0175 13.4154 44.07 14.6031 46.4806 14.6802Z" fill="#E26D00"/>
<path d="M0.409027 71.8056C0.305147 71.8056 0.20776 71.7667 0.116865 71.6889C0.0389549 71.5981 0 71.5009 0 71.3972C0 71.3324 0.00649249 71.2741 0.0194775 71.2222L4.59668 58.7389C4.63564 58.5963 4.71355 58.4731 4.83041 58.3694C4.96026 58.2528 5.13556 58.1944 5.3563 58.1944H8.23897C8.45971 58.1944 8.62852 58.2528 8.74538 58.3694C8.87523 58.4731 8.95963 58.5963 8.99859 58.7389L13.5563 71.2222C13.5823 71.2741 13.5953 71.3324 13.5953 71.3972C13.5953 71.5009 13.5498 71.5981 13.4589 71.6889C13.381 71.7667 13.2836 71.8056 13.1668 71.8056H10.771C10.5763 71.8056 10.4269 71.7602 10.3231 71.6694C10.2322 71.5657 10.1737 71.475 10.1478 71.3972L9.38814 69.4139H4.18766L3.44751 71.3972C3.42154 71.475 3.36311 71.5657 3.27221 71.6694C3.18132 71.7602 3.0255 71.8056 2.80476 71.8056H0.409027ZM4.98623 66.6139H8.60904L6.77816 61.4806L4.98623 66.6139Z" fill="#E26D00"/>
<path d="M21.2468 72C20.0132 72 18.9549 71.7991 18.0719 71.3972C17.2019 70.9954 16.5202 70.4056 16.0268 69.6278C15.5464 68.85 15.2802 67.8843 15.2282 66.7306C15.2152 66.1991 15.2088 65.6287 15.2088 65.0194C15.2088 64.4102 15.2152 63.8269 15.2282 63.2694C15.2802 62.1417 15.5529 61.1889 16.0463 60.4111C16.5397 59.6204 17.2279 59.0241 18.1109 58.6222C18.9939 58.2074 20.0392 58 21.2468 58C22.1038 58 22.8959 58.1102 23.623 58.3306C24.3502 58.538 24.9864 58.8491 25.5318 59.2639C26.0772 59.6657 26.4992 60.1583 26.7978 60.7417C27.1095 61.312 27.2718 61.9602 27.2848 62.6861C27.2978 62.8028 27.2588 62.9 27.1679 62.9778C27.09 63.0556 26.9926 63.0944 26.8758 63.0944H24.2463C24.0775 63.0944 23.9476 63.062 23.8568 62.9972C23.7659 62.9194 23.6879 62.7833 23.623 62.5889C23.4412 61.9019 23.1426 61.4352 22.7271 61.1889C22.3245 60.9296 21.8246 60.8 21.2273 60.8C20.5131 60.8 19.9483 61.0009 19.5328 61.4028C19.1172 61.7917 18.89 62.4463 18.851 63.3667C18.8121 64.4296 18.8121 65.5185 18.851 66.6333C18.89 67.5537 19.1172 68.2148 19.5328 68.6167C19.9483 69.0056 20.5131 69.2 21.2273 69.2C21.8246 69.2 22.331 69.0704 22.7465 68.8111C23.1621 68.5519 23.4542 68.0852 23.623 67.4111C23.675 67.2167 23.7464 67.087 23.8373 67.0222C23.9412 66.9444 24.0775 66.9056 24.2463 66.9056H26.8758C26.9926 66.9056 27.09 66.9444 27.1679 67.0222C27.2588 67.1 27.2978 67.1972 27.2848 67.3139C27.2718 68.0398 27.1095 68.6944 26.7978 69.2778C26.4992 69.8481 26.0772 70.3407 25.5318 70.7556C24.9864 71.1574 24.3502 71.4685 23.623 71.6889C22.8959 71.8963 22.1038 72 21.2468 72Z" fill="#E26D00"/>
<path d="M30.6313 71.8056C30.4885 71.8056 30.3716 71.7602 30.2807 71.6694C30.1898 71.5787 30.1444 71.462 30.1444 71.3194V58.6806C30.1444 58.538 30.1898 58.4213 30.2807 58.3306C30.3716 58.2398 30.4885 58.1944 30.6313 58.1944H36.085C37.1628 58.1944 38.0977 58.363 38.8898 58.7C39.6948 59.0241 40.3181 59.5167 40.7596 60.1778C41.2141 60.8389 41.4413 61.675 41.4413 62.6861C41.4413 63.6843 41.2141 64.5074 40.7596 65.1556C40.3181 65.8037 39.6948 66.2833 38.8898 66.5944C38.0977 66.9056 37.1628 67.0611 36.085 67.0611H33.7672V71.3194C33.7672 71.462 33.7152 71.5787 33.6114 71.6694C33.5205 71.7602 33.4036 71.8056 33.2608 71.8056H30.6313ZM33.7087 64.3778H35.9876C36.546 64.3778 36.9875 64.2352 37.3121 63.95C37.6497 63.6648 37.8185 63.2306 37.8185 62.6472C37.8185 62.1546 37.6757 61.7398 37.39 61.4028C37.1043 61.0657 36.6369 60.8972 35.9876 60.8972H33.7087V64.3778Z" fill="#E26D00"/>
<path d="M44.3911 71.8056C44.2483 71.8056 44.1314 71.7602 44.0405 71.6694C43.9496 71.5787 43.9042 71.462 43.9042 71.3194V62.1806C43.9042 62.0509 43.9496 61.9407 44.0405 61.85C44.1314 61.7463 44.2483 61.6944 44.3911 61.6944H46.631C46.7739 61.6944 46.8907 61.7463 46.9816 61.85C47.0725 61.9407 47.118 62.0509 47.118 62.1806V62.9583C47.4686 62.5565 47.8841 62.2454 48.3645 62.025C48.858 61.8046 49.4098 61.6944 50.0201 61.6944H50.8771C51.007 61.6944 51.1173 61.7398 51.2082 61.8306C51.3121 61.9213 51.3641 62.038 51.3641 62.1806V64.1833C51.3641 64.313 51.3121 64.4296 51.2082 64.5333C51.1173 64.6241 51.007 64.6694 50.8771 64.6694H48.9878C48.4554 64.6694 48.0399 64.8185 47.7412 65.1167C47.4556 65.4019 47.3127 65.8102 47.3127 66.3417V71.3194C47.3127 71.462 47.2608 71.5787 47.1569 71.6694C47.066 71.7602 46.9492 71.8056 46.8063 71.8056H44.3911Z" fill="#E26D00"/>
<path d="M58.2759 72C57.1851 72 56.2632 71.825 55.5101 71.475C54.7699 71.125 54.1986 70.6259 53.796 69.9778C53.4065 69.3167 53.1857 68.5324 53.1338 67.625C53.1208 67.3657 53.1143 67.0741 53.1143 66.75C53.1143 66.413 53.1208 66.1213 53.1338 65.875C53.1857 64.9546 53.4195 64.1704 53.835 63.5222C54.2505 62.8741 54.8284 62.375 55.5685 62.025C56.3216 61.675 57.2241 61.5 58.2759 61.5C59.3406 61.5 60.2431 61.675 60.9832 62.025C61.7364 62.375 62.3207 62.8741 62.7362 63.5222C63.1517 64.1704 63.3855 64.9546 63.4374 65.875C63.4504 66.1213 63.4569 66.413 63.4569 66.75C63.4569 67.0741 63.4504 67.3657 63.4374 67.625C63.3855 68.5324 63.1582 69.3167 62.7557 69.9778C62.3661 70.6259 61.7948 71.125 61.0417 71.475C60.3015 71.825 59.3796 72 58.2759 72ZM58.2759 69.6278C58.8602 69.6278 59.2822 69.4528 59.5419 69.1028C59.8146 68.7528 59.9704 68.2278 60.0094 67.5278C60.0223 67.3333 60.0288 67.0741 60.0288 66.75C60.0288 66.4259 60.0223 66.1667 60.0094 65.9722C59.9704 65.2852 59.8146 64.7667 59.5419 64.4167C59.2822 64.0537 58.8602 63.8722 58.2759 63.8722C57.7045 63.8722 57.2825 64.0537 57.0098 64.4167C56.7371 64.7667 56.5878 65.2852 56.5618 65.9722C56.5489 66.1667 56.5424 66.4259 56.5424 66.75C56.5424 67.0741 56.5489 67.3333 56.5618 67.5278C56.5878 68.2278 56.7371 68.7528 57.0098 69.1028C57.2825 69.4528 57.7045 69.6278 58.2759 69.6278Z" fill="#E26D00"/>
<path d="M66.8853 71.8056C66.7424 71.8056 66.6256 71.7602 66.5347 71.6694C66.4438 71.5787 66.3983 71.462 66.3983 71.3194V58.6806C66.3983 58.538 66.4438 58.4213 66.5347 58.3306C66.6256 58.2398 66.7424 58.1944 66.8853 58.1944H69.4952C69.6381 58.1944 69.7549 58.2398 69.8458 58.3306C69.9367 58.4213 69.9822 58.538 69.9822 58.6806V71.3194C69.9822 71.462 69.9367 71.5787 69.8458 71.6694C69.7549 71.7602 69.6381 71.8056 69.4952 71.8056H66.8853Z" fill="#E26D00"/>
<path d="M73.7975 71.8056C73.6547 71.8056 73.5378 71.7602 73.4469 71.6694C73.356 71.5787 73.3106 71.462 73.3106 71.3194V62.1806C73.3106 62.038 73.356 61.9213 73.4469 61.8306C73.5378 61.7398 73.6547 61.6944 73.7975 61.6944H76.0374C76.1803 61.6944 76.2971 61.7398 76.388 61.8306C76.4789 61.9213 76.5244 62.038 76.5244 62.1806V62.9194C76.862 62.5176 77.3035 62.1806 77.8488 61.9083C78.3942 61.6361 79.037 61.5 79.7771 61.5C80.5302 61.5 81.1925 61.6685 81.7638 62.0056C82.3481 62.3426 82.8026 62.8417 83.1272 63.5028C83.4648 64.1509 83.6336 64.9481 83.6336 65.8944V71.3194C83.6336 71.462 83.5817 71.5787 83.4778 71.6694C83.3869 71.7602 83.2766 71.8056 83.1467 71.8056H80.6925C80.5627 71.8056 80.4458 71.7602 80.342 71.6694C80.2511 71.5787 80.2056 71.462 80.2056 71.3194V66.0111C80.2056 65.4019 80.0563 64.9352 79.7576 64.6111C79.472 64.2741 79.0435 64.1056 78.4721 64.1056C77.9397 64.1056 77.5112 64.2741 77.1866 64.6111C76.875 64.9352 76.7192 65.4019 76.7192 66.0111V71.3194C76.7192 71.462 76.6672 71.5787 76.5633 71.6694C76.4724 71.7602 76.3621 71.8056 76.2322 71.8056H73.7975Z" fill="#E26D00"/>
<path d="M90.7871 72C89.9431 72 89.2224 71.9093 88.6251 71.7278C88.0408 71.5333 87.5603 71.3 87.1838 71.0278C86.8202 70.7556 86.5475 70.4769 86.3657 70.1917C86.1839 69.8935 86.0865 69.6407 86.0736 69.4333C86.0606 69.2907 86.106 69.1741 86.2099 69.0833C86.3138 68.9796 86.4241 68.9278 86.541 68.9278H88.7615C88.8004 68.9278 88.8329 68.9343 88.8588 68.9472C88.8848 68.9602 88.9238 68.9861 88.9757 69.025C89.1445 69.1157 89.3133 69.2324 89.4821 69.375C89.6509 69.5046 89.8457 69.6213 90.0664 69.725C90.2872 69.8287 90.5534 69.8806 90.865 69.8806C91.2286 69.8806 91.5337 69.8093 91.7804 69.6667C92.0272 69.5241 92.1505 69.3102 92.1505 69.025C92.1505 68.8176 92.0921 68.6491 91.9752 68.5194C91.8584 68.3769 91.6181 68.2407 91.2546 68.1111C90.904 67.9815 90.3716 67.8519 89.6574 67.7222C88.9822 67.5667 88.3914 67.3657 87.885 67.1194C87.3785 66.8602 86.989 66.5296 86.7163 66.1278C86.4436 65.713 86.3073 65.2139 86.3073 64.6306C86.3073 64.112 86.4761 63.613 86.8137 63.1333C87.1513 62.6537 87.6447 62.2648 88.294 61.9667C88.9432 61.6556 89.7418 61.5 90.6897 61.5C91.4428 61.5 92.0921 61.5907 92.6375 61.7722C93.1958 61.9407 93.6633 62.1611 94.0398 62.4333C94.4294 62.7056 94.7215 62.9843 94.9163 63.2694C95.1111 63.5546 95.215 63.8139 95.228 64.0472C95.2409 64.1769 95.202 64.2935 95.1111 64.3972C95.0202 64.488 94.9163 64.5333 94.7995 64.5333H92.7738C92.7219 64.5333 92.6699 64.5269 92.618 64.5139C92.566 64.488 92.5206 64.462 92.4816 64.4361C92.3258 64.3583 92.17 64.2546 92.0142 64.125C91.8584 63.9954 91.6766 63.8787 91.4688 63.775C91.2611 63.6713 91.0014 63.6194 90.6897 63.6194C90.3391 63.6194 90.0664 63.6972 89.8717 63.8528C89.6769 64.0083 89.5795 64.2093 89.5795 64.4556C89.5795 64.6241 89.6314 64.7796 89.7353 64.9222C89.8522 65.0648 90.0794 65.1944 90.417 65.3111C90.7676 65.4278 91.3065 65.5574 92.0337 65.7C92.9296 65.8426 93.6438 66.0759 94.1762 66.4C94.7086 66.7111 95.0851 67.0806 95.3059 67.5083C95.5266 67.9231 95.637 68.3639 95.637 68.8306C95.637 69.4528 95.4487 70.0037 95.0721 70.4833C94.7086 70.963 94.1632 71.3389 93.436 71.6111C92.7089 71.8704 91.8259 72 90.7871 72Z" fill="#E26D00"/>
<path d="M103.32 71.8056C102.489 71.8056 101.769 71.6759 101.158 71.4167C100.561 71.1444 100.1 70.7296 99.7754 70.1722C99.4508 69.6019 99.2885 68.8694 99.2885 67.975V64.2417H97.7692C97.6264 64.2417 97.503 64.1963 97.3991 64.1056C97.3083 64.0148 97.2628 63.8981 97.2628 63.7556V62.1806C97.2628 62.038 97.3083 61.9213 97.3991 61.8306C97.503 61.7398 97.6264 61.6944 97.7692 61.6944H99.2885V58.4861C99.2885 58.3435 99.3339 58.2269 99.4248 58.1361C99.5287 58.0454 99.6455 58 99.7754 58H102.035C102.178 58 102.294 58.0454 102.385 58.1361C102.476 58.2269 102.522 58.3435 102.522 58.4861V61.6944H104.956C105.099 61.6944 105.216 61.7398 105.307 61.8306C105.398 61.9213 105.443 62.038 105.443 62.1806V63.7556C105.443 63.8981 105.398 64.0148 105.307 64.1056C105.216 64.1963 105.099 64.2417 104.956 64.2417H102.522V67.7028C102.522 68.1435 102.606 68.4935 102.775 68.7528C102.944 69.012 103.229 69.1417 103.632 69.1417H105.132C105.275 69.1417 105.391 69.187 105.482 69.2778C105.573 69.3685 105.619 69.4852 105.619 69.6278V71.3194C105.619 71.462 105.573 71.5787 105.482 71.6694C105.391 71.7602 105.275 71.8056 105.132 71.8056H103.32Z" fill="#E26D00"/>
<path d="M111.081 72C110.38 72 109.75 71.8704 109.192 71.6111C108.647 71.3389 108.212 70.9759 107.887 70.5222C107.562 70.0685 107.4 69.5565 107.4 68.9861C107.4 68.0657 107.777 67.3398 108.53 66.8083C109.283 66.2639 110.283 65.8944 111.529 65.7L113.964 65.3306V65.0583C113.964 64.5917 113.867 64.2352 113.672 63.9889C113.477 63.7426 113.12 63.6194 112.601 63.6194C112.237 63.6194 111.938 63.6907 111.705 63.8333C111.484 63.9759 111.309 64.1704 111.179 64.4167C111.062 64.5852 110.9 64.6694 110.692 64.6694H108.51C108.367 64.6694 108.257 64.6306 108.179 64.5528C108.101 64.462 108.069 64.3583 108.082 64.2417C108.082 64.0083 108.166 63.7426 108.335 63.4444C108.517 63.1333 108.789 62.8287 109.153 62.5306C109.517 62.2324 109.984 61.9861 110.555 61.7917C111.127 61.5972 111.815 61.5 112.62 61.5C113.464 61.5 114.185 61.5972 114.782 61.7917C115.379 61.9861 115.86 62.2583 116.223 62.6083C116.6 62.9583 116.879 63.3731 117.061 63.8528C117.243 64.3194 117.334 64.838 117.334 65.4083V71.3194C117.334 71.462 117.282 71.5787 117.178 71.6694C117.087 71.7602 116.977 71.8056 116.847 71.8056H114.587C114.444 71.8056 114.328 71.7602 114.237 71.6694C114.146 71.5787 114.1 71.462 114.1 71.3194V70.6389C113.932 70.8852 113.704 71.112 113.419 71.3194C113.133 71.5269 112.795 71.6889 112.406 71.8056C112.029 71.9352 111.588 72 111.081 72ZM111.997 69.7833C112.373 69.7833 112.711 69.7056 113.01 69.55C113.321 69.3815 113.561 69.1287 113.73 68.7917C113.912 68.4417 114.003 68.0074 114.003 67.4889V67.2167L112.347 67.5083C111.737 67.612 111.289 67.7741 111.003 67.9944C110.731 68.2019 110.594 68.4481 110.594 68.7333C110.594 68.9537 110.659 69.1417 110.789 69.2972C110.919 69.4528 111.088 69.5759 111.296 69.6667C111.503 69.7444 111.737 69.7833 111.997 69.7833Z" fill="#E26D00"/>
<path d="M120.83 71.8056C120.687 71.8056 120.57 71.7602 120.479 71.6694C120.389 71.5787 120.343 71.462 120.343 71.3194V58.4861C120.343 58.3435 120.389 58.2269 120.479 58.1361C120.57 58.0454 120.687 58 120.83 58H123.128C123.271 58 123.388 58.0454 123.479 58.1361C123.57 58.2269 123.615 58.3435 123.615 58.4861V71.3194C123.615 71.462 123.57 71.5787 123.479 71.6694C123.388 71.7602 123.271 71.8056 123.128 71.8056H120.83Z" fill="#E26D00"/>
<path d="M127.215 71.8056C127.072 71.8056 126.955 71.7602 126.864 71.6694C126.773 71.5787 126.728 71.462 126.728 71.3194V58.4861C126.728 58.3435 126.773 58.2269 126.864 58.1361C126.955 58.0454 127.072 58 127.215 58H129.513C129.656 58 129.773 58.0454 129.864 58.1361C129.955 58.2269 130 58.3435 130 58.4861V71.3194C130 71.462 129.955 71.5787 129.864 71.6694C129.773 71.7602 129.656 71.8056 129.513 71.8056H127.215Z" fill="#E26D00"/>
</svg>
