<svg width="307" height="238" viewBox="0 0 307 238" fill="none" xmlns="http://www.w3.org/2000/svg">
<path d="M19.8065 0H287.194C298.166 0 307 8.49184 307 19.04V199.92C307 210.468 298.166 218.96 287.194 218.96H19.8065C8.83368 218.96 0 210.468 0 199.92V19.04C0 8.49184 8.83368 0 19.8065 0Z" fill="#F6F6F6"/>
<path d="M197.467 110.009C197.467 154.701 159.78 190.929 113.289 190.929C66.7988 190.929 29.1121 154.701 29.1121 110.009C29.1121 65.3168 66.7988 29.0889 113.289 29.0889C159.78 29.0889 197.467 65.3168 197.467 110.009Z" fill="#E5E5E5"/>
<path d="M98.6211 105.424C89.9657 100.436 84.1772 91.3306 84.1772 80.92C84.1772 65.1506 97.4822 52.36 113.887 52.36C130.292 52.36 143.597 65.1506 143.597 80.92" fill="#C7C7C7"/>
<path d="M129.04 114.345C137.424 119.395 142.999 128.353 142.999 138.569C142.999 154.338 129.694 167.129 113.289 167.129C96.8847 167.129 83.5797 154.338 83.5797 138.569" fill="#C7C7C7"/>
<path d="M117.325 95.6284C122.48 87.146 132.046 81.4488 142.999 81.4488C159.404 81.4488 172.709 94.2394 172.709 110.009C172.709 125.778 159.404 138.569 142.999 138.569" fill="#D7D7D7"/>
<path d="M109.683 124.132C104.499 132.462 95.0114 138.04 84.1773 138.04C67.7726 138.04 54.4676 125.249 54.4676 109.48C54.4676 93.7105 67.7726 80.9199 84.1773 80.9199" fill="#D7D7D7"/>
<path d="M128.742 109.48C128.742 117.367 122.092 123.76 113.887 123.76C105.682 123.76 99.0321 117.367 99.0321 109.48C99.0321 101.593 105.682 95.1999 113.887 95.1999C122.092 95.1999 128.742 101.593 128.742 109.48Z" fill="#E26D00"/>
<path d="M34.661 218.96V234C34.661 236.209 36.4519 238 38.661 238H70.2739C72.4831 238 74.2739 236.209 74.2739 234V218.96" fill="#D9D9D9"/>
<path d="M232.726 218.96V234C232.726 236.209 234.517 238 236.726 238H268.339C270.548 238 272.339 236.209 272.339 234V218.96" fill="#D9D9D9"/>
<path d="M277.29 61.88C277.29 77.6494 263.985 90.44 247.58 90.44C231.176 90.44 217.871 77.6494 217.871 61.88C217.871 46.1106 231.176 33.32 247.58 33.32C263.985 33.32 277.29 46.1106 277.29 61.88Z" stroke="#E26D00" stroke-width="7.2" stroke-linecap="round" stroke-linejoin="round"/>
<path d="M267.387 119H227.774" stroke="#D7D7D7" stroke-width="7.2" stroke-linecap="round" stroke-linejoin="round"/>
<path d="M267.387 176.12H227.774" stroke="#D7D7D7" stroke-width="7.2" stroke-linecap="round" stroke-linejoin="round"/>
<path d="M267.387 147.56H227.774" stroke="#D7D7D7" stroke-width="7.2" stroke-linecap="round" stroke-linejoin="round"/>
</svg>
